<?xml version="1.0" standalone="no"?>
<!DOCTYPE svg PUBLIC "-//W3C//DTD SVG 20010904//EN"
 "http://www.w3.org/TR/2001/REC-SVG-20010904/DTD/svg10.dtd">
<svg version="1.0" xmlns="http://www.w3.org/2000/svg"
 width="700.000000pt" height="700.000000pt" viewBox="0 0 700.000000 700.000000"
 preserveAspectRatio="xMidYMid meet">
<metadata>
Created by potrace 1.11, written by Peter Selinger 2001-2013
</metadata>
<g transform="translate(0.000000,700.000000) scale(0.100000,-0.100000)"
fill="#000000" stroke="none">
<path d="M2730 6449 c-236 -61 -457 -137 -635 -219 l-88 -41 7 -169 c6 -159
30 -443 42 -501 5 -25 -3 -32 -113 -99 -124 -76 -211 -139 -380 -277 -56 -46
-104 -83 -106 -83 -2 0 -69 40 -148 89 -123 75 -401 231 -412 231 -6 0 -184
-204 -256 -292 -79 -99 -205 -274 -266 -373 -43 -69 -47 -79 -36 -102 20 -44
196 -304 283 -419 l83 -109 5 -845 5 -844 510 -49 c281 -26 528 -53 549 -60
70 -21 73 -33 92 -302 9 -132 18 -242 20 -243 5 -7 889 -69 896 -63 4 4 21
101 38 216 17 116 35 220 40 233 5 12 24 31 42 42 32 19 51 20 598 20 547 0
566 -1 598 -20 18 -11 36 -30 41 -43 5 -13 23 -117 40 -232 18 -115 35 -212
39 -216 7 -6 891 56 896 63 2 1 11 111 20 243 19 269 22 281 92 302 21 7 269
34 549 60 l510 49 5 845 5 845 50 64 c114 146 325 461 325 485 0 19 -178 282
-271 400 -83 107 -287 345 -295 345 -12 0 -289 -155 -413 -231 -79 -49 -146
-89 -148 -89 -2 0 -50 37 -106 83 -169 138 -256 201 -380 277 -115 71 -117 73
-112 104 14 81 35 338 41 494 l7 172 -79 36 c-187 86 -415 164 -649 223 -91
23 -121 28 -127 18 -34 -52 -153 -276 -224 -421 l-86 -177 -71 8 c-93 10 -421
10 -514 0 l-72 -8 -81 168 c-86 179 -229 443 -239 442 -3 0 -58 -14 -121 -30z
m-558 -2450 c89 -18 211 -83 282 -150 84 -78 133 -152 170 -259 26 -73 30 -99
30 -190 0 -179 -56 -312 -184 -440 -331 -332 -892 -182 -1026 275 -26 90 -24
240 5 335 62 205 241 377 443 426 67 16 210 17 280 3z m2920 0 c89 -18 211
-83 282 -150 84 -78 133 -152 170 -259 26 -73 30 -99 30 -190 0 -179 -56 -312
-184 -440 -331 -332 -891 -182 -1026 275 -12 41 -18 93 -18 165 1 88 5 118 28
185 38 109 83 181 165 258 75 70 183 131 273 153 67 16 210 17 280 3z m-1507
-368 c50 -22 91 -69 105 -119 14 -51 13 -605 -1 -657 -16 -56 -74 -110 -138
-125 -104 -25 -214 33 -240 125 -14 52 -15 606 -1 657 22 79 103 138 190 138
25 0 63 -9 85 -19z"/>
<path d="M2035 3768 c-219 -29 -381 -250 -345 -470 28 -180 167 -316 350 -348
172 -30 354 70 437 238 26 52 28 66 28 172 0 105 -2 120 -27 170 -85 174 -254
264 -443 238z"/>
<path d="M4836 3768 c-32 -4 -83 -19 -113 -32 -70 -33 -161 -124 -199 -201
-27 -56 -29 -68 -29 -175 0 -106 2 -120 28 -172 83 -168 264 -267 437 -238
228 38 386 250 351 470 -37 230 -242 380 -475 348z"/>
<path d="M713 1988 c6 -204 19 -289 63 -404 162 -432 623 -756 1330 -934 844
-214 1944 -214 2788 0 787 199 1261 573 1372 1082 10 44 18 147 21 261 l6 188
-59 -6 c-32 -3 -240 -23 -462 -45 -222 -21 -406 -41 -410 -45 -3 -3 -14 -113
-23 -244 -18 -257 -24 -279 -77 -300 -15 -5 -280 -28 -590 -50 -629 -45 -619
-46 -646 21 -8 18 -26 119 -40 223 -15 105 -30 200 -33 213 l-5 22 -448 0
-448 0 -5 -22 c-3 -13 -18 -108 -33 -213 -14 -104 -32 -205 -40 -223 -27 -67
-17 -66 -646 -21 -310 22 -575 45 -590 50 -53 21 -59 43 -77 300 -9 131 -20
241 -23 244 -4 4 -188 24 -410 45 -222 22 -430 42 -462 45 l-59 6 6 -193z"/>
</g>
</svg>
